<mxfile host="app.diagrams.net" modified="2023-05-10T07:21:29.252Z" agent="Mozilla/5.0 (X11; Linux x86_64) AppleWebKit/537.36 (KHTML, like Gecko) Chrome/109.0.0.0 Safari/537.36" etag="M7idVSqp7b3Zsf3T5mRM" version="21.2.8" type="device">
  <diagram name="Page-1" id="2dYWXfnCK1-jO2-cGuqI">
    <mxGraphModel dx="1391" dy="708" grid="1" gridSize="10" guides="1" tooltips="1" connect="1" arrows="1" fold="1" page="1" pageScale="1" pageWidth="827" pageHeight="1169" math="0" shadow="0">
      <root>
        <mxCell id="0" />
        <mxCell id="1" parent="0" />
        <mxCell id="EH4CahUIeFzZj-xMATcn-1" value="" style="shape=image;verticalLabelPosition=bottom;labelBackgroundColor=default;verticalAlign=top;aspect=fixed;imageAspect=0;image=data:image/svg+xml,PHN2ZyB4bWxucz0iaHR0cDovL3d3dy53My5vcmcvMjAwMC9zdmciIHZpZXdCb3g9Ii02NC44NTMyNSAtMTExLjI3OSA1NjIuMDYxNSA2NjcuNjc0IiB3aWR0aD0iMTIwMCIgaGVpZ2h0PSI4MDAiPjxnIHN0cm9rZS1saW5lam9pbj0icm91bmQiIHN0cm9rZS1saW5lY2FwPSJyb3VuZCIgc3Ryb2tlLXdpZHRoPSIxMi40NjUiIHN0cm9rZT0iI2ZmZiIgZmlsbD0ibm9uZSI+PHBhdGggc3Ryb2tlLWxpbmVqb2luPSJtaXRlciIgc3Ryb2tlLWxpbmVjYXA9ImJ1dHQiIHN0cm9rZS13aWR0aD0iMzcuMzk1IiBzdHJva2U9IiMwMDAiIGZpbGw9IiMwMDAiIGQ9Ik0zMjMuMjA1IDMyNC4yMjdjMi44MzMtMjMuNiAxLjk4NC0yNy4wNjIgMTkuNTYzLTIzLjIzOWw0LjQ2My4zOTJjMTMuNTE3LjYxNSAzMS4xOTktMi4xNzQgNDEuNTg3LTcgMjIuMzYyLTEwLjM3NiAzNS42MjItMjcuNyAxMy41NzItMjMuMTQ4LTUwLjI5NyAxMC4zNzYtNTMuNzU1LTYuNjU1LTUzLjc1NS02LjY1NSA1My4xMTEtNzguODAzIDc1LjMxMy0xNzguODM2IDU2LjE0OS0yMDMuMzIyQzM1Mi41MTQtNS41MzQgMjYyLjAzNiAyNi4wNSAyNjAuNTIyIDI2Ljg3bC0uNDgyLjA5Yy05LjkzOC0yLjA2My0yMS4wNi0zLjI5NS0zMy41NTQtMy40OTctMjIuNzYxLS4zNzQtNDAuMDMyIDUuOTY3LTUzLjEzMyAxNS45MDQgMCAwLTE2MS40MDgtNjYuNDk4LTE1My44OTkgODMuNjI4IDEuNTk3IDMxLjkzNiA0NS43NzcgMjQxLjY1NSA5OC40NyAxNzguMzEgMTkuMjU5LTIzLjE2MyAzNy44NzEtNDIuNzQ4IDM3Ljg3MS00Mi43NDggOS4yNDIgNi4xNCAyMC4zMDcgOS4yNzIgMzEuOTEyIDguMTQ3bC44OTctLjc2NWMtLjI4MSAyLjg3Ni0uMTU3IDUuNjkuMzU5IDkuMDItMTMuNTcyIDE1LjE2Ni05LjU4NCAxNy44My0zNi43MjMgMjMuNDE1LTI3LjQ1NyA1LjY2LTExLjMyNiAxNS43MzQtLjc5NyAxOC4zNjcgMTIuNzY4IDMuMTkzIDQyLjMwNSA3LjcxNiA2Mi4yNjgtMjAuMjI0bC0uNzk1IDMuMTg4YzUuMzI1IDQuMjYgNC45NjUgMzAuNjIgNS43MiA0OS40NTIuNzU2IDE4LjgzNCAyLjAxNyAzNi40MSA1Ljg1NiA0Ni43NzEgMy44MzkgMTAuMzYgOC4zNjkgMzcuMDUgNDQuMDM2IDI5LjQwNiAyOS44MDktNi4zODggNTIuNi0xNS41ODIgNTQuNjc3LTEwMS4xMDciLz48cGF0aCBzdHJva2U9Im5vbmUiIGZpbGw9IiMzMzY3OTEiIGQ9Ik00MDIuMzk1IDI3MS4yM2MtNTAuMzAyIDEwLjM3Ni01My43Ni02LjY1NS01My43Ni02LjY1NSA1My4xMTEtNzguODA4IDc1LjMxMy0xNzguODQzIDU2LjE1My0yMDMuMzI2LTUyLjI3LTY2Ljc4NS0xNDIuNzUyLTM1LjItMTQ0LjI2Mi0zNC4zOGwtLjQ4Ni4wODdjLTkuOTM4LTIuMDYzLTIxLjA2LTMuMjkyLTMzLjU2LTMuNDk2LTIyLjc2MS0uMzczLTQwLjAyNiA1Ljk2Ny01My4xMjcgMTUuOTAyIDAgMC0xNjEuNDExLTY2LjQ5NS0xNTMuOTA0IDgzLjYzIDEuNTk3IDMxLjkzOCA0NS43NzYgMjQxLjY1NyA5OC40NzEgMTc4LjMxMiAxOS4yNi0yMy4xNjMgMzcuODY5LTQyLjc0OCAzNy44NjktNDIuNzQ4IDkuMjQzIDYuMTQgMjAuMzA4IDkuMjcyIDMxLjkwOCA4LjE0N2wuOTAxLS43NjVjLS4yOCAyLjg3Ni0uMTUyIDUuNjkuMzYxIDkuMDItMTMuNTc1IDE1LjE2Ni05LjU4NiAxNy44My0zNi43MjMgMjMuNDE1LTI3LjQ1OSA1LjY2LTExLjMyOCAxNS43MzQtLjc5NiAxOC4zNjcgMTIuNzY4IDMuMTkzIDQyLjMwNyA3LjcxNiA2Mi4yNjYtMjAuMjI0bC0uNzk2IDMuMTg4YzUuMzE5IDQuMjYgOS4wNTQgMjcuNzExIDguNDI4IDQ4Ljk3LS42MjYgMjEuMjU4LTEuMDQ0IDM1Ljg1MyAzLjE0NyA0Ny4yNTMgNC4xOTEgMTEuNCA4LjM2OCAzNy4wNSA0NC4wNDIgMjkuNDA2IDI5LjgwOS02LjM4OCA0NS4yNTYtMjIuOTQyIDQ3LjQwNS01MC41NTUgMS41MjUtMTkuNjMgNC45NzYtMTYuNzI5IDUuMTk0LTM0LjI4bDIuNzY4LTguMzA5YzMuMTkyLTI2LjYxLjUwNy0zNS4xOTYgMTguODcyLTMxLjIwM2w0LjQ2My4zOTJjMTMuNTE3LjYxNSAzMS4yMDgtMi4xNzQgNDEuNTkxLTcgMjIuMzU4LTEwLjM3NiAzNS42MTgtMjcuNyAxMy41NzMtMjMuMTQ4eiIvPjxwYXRoIGQ9Ik0yMTUuODY2IDI4Ni40ODRjLTEuMzg1IDQ5LjUxNi4zNDggOTkuMzc3IDUuMTkzIDExMS40OTUgNC44NDggMTIuMTE4IDE1LjIyMyAzNS42ODggNTAuOSAyOC4wNDUgMjkuODA2LTYuMzkgNDAuNjUxLTE4Ljc1NiA0NS4zNTctNDYuMDUgMy40NjYtMjAuMDgzIDEwLjE0OC03NS44NTUgMTEuMDA1LTg3LjI4Mk0xNzMuMTA0IDM4LjI1NlMxMS41ODMtMjcuNzYgMTkuMDkyIDEyMi4zNjZjMS41OTcgMzEuOTM3IDQ1Ljc3OSAyNDEuNjYzIDk4LjQ3MyAxNzguMzE1IDE5LjI1Ni0yMy4xNjYgMzYuNjcxLTQxLjMzNSAzNi42NzEtNDEuMzM1TTI2MC4zNDkgMjYuMjA3Yy01LjU5MSAxLjc1MyA4OS44NDgtMzQuODg5IDE0NC4wODcgMzQuNDE3IDE5LjE1OSAyNC40ODQtMy4wNDMgMTI0LjUyLTU2LjE1MyAyMDMuMzMiLz48cGF0aCBzdHJva2UtbGluZWpvaW49ImJldmVsIiBkPSJNMzQ4LjI4MiAyNjMuOTUzczMuNDYxIDE3LjAzNiA1My43NjQgNi42NTNjMjIuMDQtNC41NTIgOC43NzYgMTIuNzc0LTEzLjU3NyAyMy4xNTUtMTguMzQ1IDguNTE0LTU5LjQ3NCAxMC42OTYtNjAuMTQ2LTEuMDY5LTEuNzI5LTMwLjM1NSAyMS42NDctMjEuMTMzIDE5Ljk2LTI4LjczOS0xLjUyNS02Ljg1LTExLjk3OS0xMy41NzMtMTguODk0LTMwLjMzOC02LjAzNy0xNC42MzMtODIuNzk2LTEyNi44NDkgMjEuMjg3LTExMC4xODMgMy44MTMtLjc4OS0yNy4xNDYtOTkuMDAyLTEyNC41NTMtMTAwLjU5OS05Ny4zODUtMS41OTctOTQuMTkgMTE5Ljc2Mi05NC4xOSAxMTkuNzYyIi8+PHBhdGggZD0iTTE4OC42MDQgMjc0LjMzNGMtMTMuNTc3IDE1LjE2Ni05LjU4NCAxNy44My0zNi43MjMgMjMuNDE3LTI3LjQ1OSA1LjY2LTExLjMyNiAxNS43MzMtLjc5NyAxOC4zNjUgMTIuNzY4IDMuMTk1IDQyLjMwNyA3LjcxOCA2Mi4yNjYtMjAuMjI5IDYuMDc4LTguNTA5LS4wMzYtMjIuMDg2LTguMzg1LTI1LjU0Ny00LjAzNC0xLjY3LTkuNDI4LTMuNzY1LTE2LjM2MSAzLjk5NHoiLz48cGF0aCBkPSJNMTg3LjcxNSAyNzQuMDdjLTEuMzY4LTguOTE4IDIuOTMtMTkuNTI5IDcuNTM2LTMxLjk0MyA2LjkyMi0xOC42MjYgMjIuODkzLTM3LjI1NSAxMC4xMTctOTYuMzM5LTkuNTIzLTQ0LjAyOS03My4zOTYtOS4xNjMtNzMuNDM2LTMuMTkzLS4wMzkgNS45NjggMi44ODkgMzAuMjYtMS4wNjcgNTguNTQ4LTUuMTYyIDM2LjkxMyAyMy40ODggNjguMTMyIDU2LjQ3OSA2NC45MzgiLz48cGF0aCBzdHJva2UtbGluZWpvaW49Im1pdGVyIiBzdHJva2UtbGluZWNhcD0iYnV0dCIgc3Ryb2tlLXdpZHRoPSI0LjE1NSIgZmlsbD0iI2ZmZiIgZD0iTTE3Mi41MTcgMTQxLjdjLS4yODggMi4wNCAzLjczMyA3LjQ4IDguOTc2IDguMjA3IDUuMjM0LjczIDkuNzE0LTMuNTIyIDkuOTk4LTUuNTU5LjI4NC0yLjAzOS0zLjczMi00LjI4NS04Ljk3Ny01LjAxNS01LjIzNy0uNzMtOS43MTkuMzMzLTkuOTk2IDIuMzY3eiIvPjxwYXRoIHN0cm9rZS1saW5lam9pbj0ibWl0ZXIiIHN0cm9rZS1saW5lY2FwPSJidXR0IiBzdHJva2Utd2lkdGg9IjIuMDc4IiBmaWxsPSIjZmZmIiBkPSJNMzMxLjk0MSAxMzcuNTQzYy4yODQgMi4wNC0zLjczMiA3LjQ4LTguOTc2IDguMjA3LTUuMjM4LjczLTkuNzE4LTMuNTIyLTEwLjAwNS01LjU1OS0uMjc3LTIuMDM5IDMuNzQtNC4yODUgOC45NzktNS4wMTUgNS4yMzktLjczIDkuNzE4LjMzMyAxMC4wMDIgMi4zNjh6Ii8+PHBhdGggZD0iTTM1MC42NzYgMTIzLjQzMmMuODYzIDE1Ljk5NC0zLjQ0NSAyNi44ODgtMy45ODggNDMuOTE0LS44MDQgMjQuNzQ4IDExLjc5OSA1My4wNzQtNy4xOTEgODEuNDM1Ii8+PC9nPjwvc3ZnPg==;" vertex="1" parent="1">
          <mxGeometry x="180" y="253.34" width="360" height="239.99" as="geometry" />
        </mxCell>
        <mxCell id="EH4CahUIeFzZj-xMATcn-2" value="" style="shape=cylinder3;whiteSpace=wrap;html=1;boundedLbl=1;backgroundOutline=1;size=15;" vertex="1" parent="1">
          <mxGeometry x="450" y="253.34" width="210" height="230" as="geometry" />
        </mxCell>
      </root>
    </mxGraphModel>
  </diagram>
</mxfile>
